# Blender 4.2.3 LTS
# www.blender.org
mtllib gravestone3.mtl
o Plane
v 0.299799 0.171841 0.284689
v 0.299799 0.171841 -0.284689
v 0.264749 0.368859 0.242567
v 0.264749 0.368859 -0.242567
v -0.242633 1.458591 -0.192887
v -0.242633 1.458591 0.192887
v 0.110298 1.459168 0.192856
v 0.110298 1.459168 -0.192856
v -0.240531 0.571733 -0.242400
v -0.240531 0.571733 0.242400
v 0.231925 0.571156 0.242434
v 0.231925 0.571156 -0.242434
v -0.240531 0.571733 -0.242400
v -0.240531 0.571733 0.242400
v 0.231925 0.571156 0.242434
v 0.231925 0.571156 -0.242434
v -0.242633 1.458591 -0.192887
v -0.242633 1.458591 0.192887
v 0.110298 1.459168 0.192856
v 0.110298 1.459168 -0.192856
v -0.200531 0.571827 -0.242400
v -0.200531 0.571827 0.242400
v -0.202633 1.458686 -0.192887
v -0.202633 1.458686 0.192887
v 0.192295 0.565728 0.242434
v 0.192295 0.565728 -0.242434
v 0.070668 1.453740 0.192856
v 0.070668 1.453740 -0.192856
v 0.299799 0.171841 0.284689
v 0.299799 0.171841 -0.284689
v 0.264749 0.368859 0.242567
v 0.264749 0.368859 -0.242567
v -0.407538 0.000000 0.459358
v -0.424967 -0.000000 0.443988
v 0.412280 0.000000 0.443878
v 0.395735 -0.000000 0.459358
v -0.424967 0.000000 -0.443988
v -0.407538 0.000000 -0.459358
v 0.395735 0.000000 -0.459358
v 0.412280 0.000000 -0.443878
v -0.312757 0.099000 -0.361085
v -0.298073 0.099000 -0.375868
v -0.322987 0.099000 -0.386098
v -0.298073 0.099000 0.375868
v -0.312757 0.099000 0.361085
v -0.322987 0.099000 0.386098
v -0.337669 0.099000 -0.400780
v -0.344427 0.085786 -0.421134
v -0.360708 0.087347 -0.405068
v -0.360708 0.087347 0.405068
v -0.344427 0.085786 0.421134
v -0.337669 0.099000 0.400780
v 0.343619 0.085786 0.421134
v 0.359647 0.086636 0.405275
v 0.337669 0.099000 0.400780
v 0.359647 0.086636 -0.405275
v 0.343619 0.085786 -0.421134
v 0.337669 0.099000 -0.400780
v -0.237107 0.441701 -0.302599
v -0.251791 0.441701 -0.287816
v -0.261196 0.441701 -0.313591
v -0.251791 0.441701 0.287816
v -0.237107 0.441701 0.302599
v -0.261196 0.441701 0.313591
v -0.322216 0.453823 -0.370777
v -0.305429 0.454141 -0.386746
v -0.316850 0.441701 -0.378633
v -0.322216 0.453823 0.370777
v -0.316850 0.441701 0.378633
v -0.305429 0.454141 0.386746
v 0.305429 0.454141 0.386746
v 0.316850 0.441701 0.378633
v 0.322216 0.453823 0.370777
v 0.322216 0.453823 -0.370777
v 0.316850 0.441701 -0.378633
v 0.305429 0.454141 -0.386746
v -0.271554 0.509405 -0.339475
v -0.277541 0.496965 -0.361326
v -0.293915 0.497282 -0.344980
v -0.293915 0.497282 0.344980
v -0.277541 0.496965 0.361326
v -0.271554 0.509405 0.339475
v 0.277541 0.496965 0.361326
v 0.293915 0.497282 0.344980
v 0.271554 0.509405 0.339475
v 0.293915 0.497282 -0.344980
v 0.277541 0.496965 -0.361326
v 0.271554 0.509405 -0.339475
v -0.096352 1.755851 0.000000
v -0.082554 1.752901 0.023993
v -0.069036 1.756337 0.000000
v -0.082554 1.752901 -0.023993
v -0.240417 0.523871 -0.293008
v -0.225916 0.509405 -0.308304
v -0.250612 0.509405 -0.318534
v -0.240383 0.509405 -0.293838
v -0.225916 0.509405 0.308304
v -0.240417 0.523871 0.293008
v -0.240383 0.509405 0.293838
v -0.250612 0.509405 0.318534
v 0.238420 0.523737 0.293016
v 0.225782 0.509405 0.308304
v 0.250612 0.509405 0.318534
v 0.240383 0.509405 0.293838
v 0.225782 0.509405 -0.308304
v 0.238420 0.523737 -0.293016
v 0.240383 0.509405 -0.293838
v 0.250612 0.509405 -0.318534
v -0.233784 1.532248 -0.217317
v -0.219484 1.529932 -0.240515
v -0.228280 1.506475 -0.252638
v -0.242747 1.506453 -0.238150
v -0.242747 1.506453 0.238150
v -0.228280 1.506475 0.252638
v -0.219484 1.529932 0.240515
v -0.233784 1.532248 0.217317
v 0.076817 1.529932 0.240515
v 0.089217 1.506475 0.252638
v 0.103803 1.506587 0.238143
v 0.092021 1.531543 0.218813
v 0.103803 1.506587 -0.238143
v 0.089217 1.506475 -0.252638
v 0.076817 1.529932 -0.240515
v 0.092021 1.531543 -0.218813
v 0.310223 0.113243 0.358039
v 0.298073 0.099000 0.375868
v 0.322987 0.099000 0.386098
v 0.312757 0.099000 0.361402
v 0.298073 0.099000 -0.375868
v 0.310223 0.113243 -0.358039
v 0.312757 0.099000 -0.361402
v 0.322987 0.099000 -0.386098
v 0.237107 0.441701 0.302599
v 0.254325 0.427458 0.290861
v 0.251791 0.441701 0.288133
v 0.261196 0.441701 0.313591
v 0.254325 0.427458 -0.290861
v 0.237107 0.441701 -0.302599
v 0.261196 0.441701 -0.313591
v 0.251791 0.441701 -0.288133
v 0.322427 0.190561 0.266860
v 0.310717 0.173784 0.284689
v 0.310717 0.173784 -0.284689
v 0.322427 0.190561 -0.266860
v 0.275668 0.370802 0.242567
v 0.292445 0.359093 0.230828
v 0.292445 0.359093 -0.230828
v 0.275668 0.370802 -0.242567
vn -0.0000 0.2091 0.9779
vn 0.8546 0.5192 -0.0000
vn -0.8055 0.5926 -0.0000
vn -0.0000 0.4070 -0.9134
vn -0.9845 0.1751 -0.0000
vn -0.0000 0.4070 0.9134
vn -0.0000 0.2091 -0.9779
vn -0.0000 1.0000 -0.0000
vn -0.0000 -1.0000 -0.0000
vn -0.8380 0.5457 -0.0000
vn -0.0000 0.5104 -0.8599
vn 0.8380 0.5457 -0.0000
vn -0.0000 0.5104 0.8599
vn -0.8519 0.5236 -0.0000
vn -1.0000 -0.0024 -0.0000
vn 0.8129 0.5824 -0.0000
vn -0.0000 0.6967 -0.7174
vn -0.0000 0.6967 0.7174
vn -0.0000 0.0557 -0.9984
vn 0.9908 0.1357 -0.0000
vn 0.9845 0.1751 -0.0000
vn -0.0000 0.0557 0.9984
vn 0.0001 -0.0557 0.9984
vn 0.0075 -0.0547 0.9985
vn 0.0001 -0.0557 -0.9984
vn 0.0024 -1.0000 -0.0000
vn -0.0024 1.0000 -0.0000
vn 0.1357 -0.9907 -0.0000
vn -0.1357 0.9908 -0.0000
vn 0.0075 -0.0547 -0.9985
vn 0.1751 -0.9845 -0.0000
vn 0.9845 0.1752 -0.0000
vn -0.1751 0.9845 -0.0000
vn -0.0361 0.2028 0.9786
vn -0.0361 0.2028 -0.9786
vn -0.3429 0.8358 -0.4287
vn -0.3429 0.8358 0.4287
vn 0.3764 0.8234 0.4246
vn 0.3764 0.8234 -0.4246
vn -0.6819 0.1606 -0.7136
vn -0.6819 0.1606 0.7136
vn 0.6819 0.1606 0.7136
vn 0.6819 0.1606 -0.7136
vn -0.3657 0.8484 -0.3828
vn -0.3657 0.8484 0.3828
vn 0.3657 0.8484 0.3828
vn 0.3657 0.8484 -0.3828
vn -0.0178 0.9998 -0.0000
vn -0.3514 0.8678 -0.3514
vn -0.3514 0.8678 0.3514
vn 0.3328 0.8811 0.3359
vn 0.3328 0.8811 -0.3359
vn -0.6331 0.5750 -0.5182
vn -0.6331 0.5750 0.5182
vn 0.5870 0.6264 0.5129
vn 0.5870 0.6264 -0.5129
vn 0.3099 0.8973 0.3145
vn 0.3099 0.8973 -0.3145
vn 0.3938 -0.8278 0.3997
vn 0.3937 -0.8278 -0.3997
vn -0.4513 0.8924 -0.0000
vn -0.0000 0.8387 0.5445
vn 0.4903 0.8716 -0.0000
vn -0.0000 0.8387 -0.5445
vn -0.5113 0.6344 0.5798
vn -0.5113 0.6344 -0.5798
vn 0.5491 0.5951 0.5869
vn 0.5491 0.5951 -0.5869
vn -0.6838 0.2668 -0.6792
vn 0.6838 0.2668 -0.6792
vn 0.6838 0.2668 0.6792
vn -0.6838 0.2668 0.6792
vn -0.9144 -0.4048 -0.0000
vn -0.0000 -0.5463 0.8376
vn 0.9144 -0.4048 -0.0000
vn -0.0000 -0.5463 -0.8376
vn -0.4766 0.8791 -0.0000
vn -0.0000 0.8690 0.4948
vn 0.4766 0.8791 -0.0000
vn -0.0000 0.8690 -0.4948
vn -0.5240 0.6605 0.5377
vn -0.5240 0.6605 -0.5378
vn 0.5240 0.6605 0.5378
vn 0.5240 0.6605 -0.5377
vn -0.9446 0.3282 -0.0000
vn -0.0000 0.4591 0.8884
vn 0.9043 0.4269 -0.0000
vn -0.0000 0.4591 -0.8884
vn -0.7072 0.0377 0.7061
vn -0.7072 0.0377 -0.7061
vn 0.6979 0.1349 0.7034
vn 0.6979 0.1349 -0.7034
vn -0.5468 0.7316 0.4072
vn 0.5105 0.7587 0.4047
vn 0.5105 0.7587 -0.4047
vn -0.5468 0.7316 -0.4072
vn 0.8200 -0.5723 -0.0000
vn 0.5723 0.8200 -0.0000
vn 0.6707 0.2672 -0.6919
vn 0.6707 0.2672 0.6919
vt 0.201927 0.181258
vt 0.798073 0.181258
vt 0.794518 0.181258
vt 0.205482 0.181258
vt 0.870602 0.855789
vt 0.870602 0.144211
vt 1.000000 0.016850
vt 1.000000 0.983150
vt 0.130460 0.145126
vt 0.130460 0.854874
vt 0.000000 0.983270
vt 0.000000 0.016730
vt 0.147431 0.871872
vt 0.853667 0.871872
vt 0.980239 1.000000
vt 0.020818 1.000000
vt 0.187243 0.806205
vt 0.187243 0.193795
vt 0.187243 0.196830
vt 0.187243 0.803170
vt 0.853667 0.128128
vt 0.147431 0.128128
vt 0.020818 0.000000
vt 0.980239 0.000000
vt 0.798073 0.818742
vt 0.201927 0.818742
vt 0.205482 0.818742
vt 0.794518 0.818742
vt 0.822987 0.827417
vt 0.812757 0.806474
vt 0.812757 0.193526
vt 0.822987 0.172583
vt 0.837669 0.160132
vt 0.837669 0.839868
vt 0.187243 0.818742
vt 0.187243 0.803170
vt 0.187243 0.196830
vt 0.187243 0.181258
vt 0.187243 0.181258
vt 0.187243 0.818742
vt 0.177013 0.172583
vt 0.187243 0.193795
vt 0.177013 0.827417
vt 0.162331 0.839868
vt 0.162331 0.160132
vt 0.276200 0.257192
vt 0.285335 0.276017
vt 0.285335 0.723983
vt 0.276200 0.742808
vt 0.257499 0.758771
vt 0.257499 0.241229
vt 0.822987 0.172583
vt 0.798073 0.181258
vt 0.201927 0.181258
vt 0.812757 0.254804
vt 0.812757 0.248942
vt 0.201927 0.818742
vt 0.798073 0.818742
vt 0.812757 0.818742
vt 0.794518 0.818742
vt 0.205482 0.818742
vt 0.187243 0.818742
vt 0.187243 0.818742
vt 0.205482 0.181258
vt 0.794518 0.181258
vt 0.812757 0.181258
vt 0.812757 0.181258
vt 0.187243 0.181258
vt 0.234314 0.234141
vt 0.234314 0.765859
vt 0.197509 0.797041
vt 0.197509 0.202959
vt 0.249336 0.778792
vt 0.750664 0.778792
vt 0.786656 0.809749
vt 0.213344 0.809749
vt 0.765686 0.765859
vt 0.765686 0.234141
vt 0.802491 0.202959
vt 0.802491 0.797041
vt 0.812757 0.196496
vt 0.812757 0.803504
vt 0.812757 0.818742
vt 0.812757 0.818742
vt 0.812757 0.181258
vt 0.750664 0.221208
vt 0.249336 0.221208
vt 0.213344 0.190251
vt 0.786655 0.190251
vt 0.298254 0.735011
vt 0.701626 0.735011
vt 0.723800 0.742808
vt 0.742501 0.758771
vt 0.257499 0.758771
vt 0.723800 0.742808
vt 0.714665 0.723983
vt 0.714665 0.276017
vt 0.723800 0.257192
vt 0.742500 0.241229
vt 0.375995 0.641490
vt 0.375995 0.358510
vt 0.489411 0.500000
vt 0.723800 0.257192
vt 0.701626 0.264989
vt 0.298254 0.264989
vt 0.257499 0.241229
vt 0.742500 0.241229
vt 0.709583 0.683935
vt 0.636511 0.626523
vt 0.363442 0.373446
vt 0.290464 0.316101
vt 0.286526 0.276853
vt 0.367380 0.344721
vt 0.290464 0.683899
vt 0.363442 0.626554
vt 0.367380 0.655279
vt 0.286526 0.723148
vt 0.624467 0.357536
vt 0.624467 0.642464
vt 0.510270 0.500000
vt 0.612791 0.656594
vt 0.386788 0.656594
vt 0.499789 0.515621
vt 0.386788 0.343406
vt 0.612791 0.343406
vt 0.499789 0.484379
vt 0.378629 0.664976
vt 0.621226 0.664976
vt 0.701626 0.735011
vt 0.709583 0.316065
vt 0.636511 0.373477
vt 0.632609 0.344728
vt 0.713485 0.276844
vt 0.632609 0.655272
vt 0.632609 0.344728
vt 0.812757 0.751058
vt 0.812757 0.194492
vt 0.812757 0.193526
vt 0.812757 0.806474
vt 0.812757 0.805508
vt 0.714665 0.723983
vt 0.713485 0.723156
vt 0.621226 0.335024
vt 0.378629 0.335024
vt 0.298254 0.264989
vt 0.701625 0.264989
vt 0.713485 0.723156
vt 0.632609 0.655272
vt 0.367380 0.344721
vt 0.812757 0.195639
vt 0.812757 0.194492
vt 0.812757 0.751058
vt 0.812757 0.745197
vt 0.812757 0.804361
vt 0.812757 0.803504
vt 0.812757 0.196496
vt 0.812757 0.195639
vt 0.812757 0.805508
vt 0.812757 0.804361
vt 0.812757 0.262770
vt 0.812757 0.737230
vt 0.812757 0.731327
vt 0.812757 0.268673
vt 0.187243 0.819236
vt 0.186666 0.181258
vt 0.187200 0.818742
vt 0.187243 0.181163
vt 0.285333 0.735012
vt 0.286594 0.266062
vt 0.714503 0.265045
vt 0.713516 0.733947
vt 0.812757 0.180771
vt 0.813333 0.818742
vt 0.813365 0.181258
vt 0.812757 0.819214
vt 0.020818 1.000000
vt 0.980239 1.000000
vt 1.000000 0.983150
vt 1.000000 0.016850
vt 0.980239 0.000000
vt 0.020818 0.000000
vt 0.000000 0.016730
s 0
f 44/1/1 126/2/1 133/3/1 63/4/1
f 56/5/2 54/6/2 35/7/2 40/8/2
f 50/9/3 49/10/3 37/11/3 34/12/3
f 48/13/4 57/14/4 39/15/4 38/16/4
f 41/17/5 45/18/5 62/19/5 60/20/5
f 53/21/6 51/22/6 33/23/6 36/24/6
f 129/25/7 42/26/7 59/27/7 138/28/7
f 132/29/8 131/30/8 128/31/8 127/32/8 55/33/8 58/34/8
f 61/35/9 60/36/9 62/37/9 64/38/9 69/39/9 67/40/9
f 46/41/8 45/42/8 41/17/8 43/43/8 47/44/8 52/45/8
f 100/46/8 99/47/8 96/48/8 95/49/8 77/50/8 82/51/8
f 127/52/8 126/53/8 44/54/8 46/41/8 52/45/8 55/33/8
f 3/55/8 1/56/8 29/56/8 31/55/8
f 43/43/8 42/57/8 129/58/8 132/29/8 58/34/8 47/44/8
f 139/59/9 138/60/9 59/61/9 61/62/9 67/63/9 75/59/9
f 64/39/9 63/64/9 133/65/9 136/66/9 72/67/9 69/68/9
f 80/69/10 79/70/10 65/71/10 68/72/10
f 78/73/11 87/74/11 76/75/11 66/76/11
f 86/77/12 84/78/12 73/79/12 74/80/12
f 136/67/9 135/81/9 140/82/9 139/83/9 75/84/9 72/85/9
f 83/86/13 81/87/13 70/88/13 71/89/13
f 95/49/8 94/90/8 105/91/8 108/92/8 88/93/8 77/94/8
f 108/95/8 107/96/8 104/97/8 103/98/8 85/99/8 88/93/8
f 109/100/14 116/101/14 89/102/14
f 103/103/8 102/104/8 97/105/8 100/46/8 82/106/8 85/107/8
f 12/108/8 8/109/8 20/109/8 16/108/8
f 6/110/15 10/111/15 98/112/15 113/113/15
f 9/114/8 10/111/8 14/111/8 13/114/8
f 9/114/15 5/115/15 112/116/15 93/117/15
f 120/118/16 124/119/16 91/120/16
f 123/121/17 110/122/17 92/123/17
f 10/111/15 9/114/15 93/117/15 96/48/15 99/47/15 98/112/15
f 115/124/18 117/125/18 90/126/18
f 111/127/19 122/128/19 105/129/19 94/90/19
f 11/130/20 7/131/20 119/132/20 101/133/20
f 7/131/20 8/109/20 121/134/20 119/135/20
f 2/136/21 1/56/21 125/137/21 128/138/21 131/139/21 130/140/21
f 12/108/20 11/130/20 101/133/20 104/97/20 107/141/20 106/142/20
f 118/143/22 114/144/22 97/145/22 102/146/22
f 8/109/20 12/108/20 106/147/20 121/148/20
f 5/115/15 6/110/15 113/149/15 112/116/15
f 17/115/23 13/114/23 21/114/23 23/115/23
f 16/108/24 20/109/24 28/109/24 26/108/24
f 5/115/8 9/114/8 13/114/8 17/115/8
f 8/109/8 7/131/8 19/131/8 20/109/8
f 11/130/8 12/108/8 16/108/8 15/130/8
f 7/131/8 11/130/8 15/130/8 19/131/8
f 10/111/8 6/110/8 18/110/8 14/111/8
f 6/110/8 5/115/8 17/115/8 18/110/8
f 24/110/15 23/115/15 21/114/15 22/111/15
f 14/111/25 18/110/25 24/110/25 22/111/25
f 18/110/26 17/115/26 23/115/26 24/110/26
f 13/114/27 14/111/27 22/111/27 21/114/27
f 28/109/20 27/131/20 25/130/20 26/108/20
f 20/109/28 19/131/28 27/131/28 28/109/28
f 15/130/29 16/108/29 26/108/29 25/130/29
f 19/131/30 15/130/30 25/130/30 27/131/30
f 1/56/21 3/55/21 134/150/21 125/151/21
f 29/56/31 30/136/31 143/152/31 142/56/31
f 3/55/21 4/153/21 137/154/21 140/155/21 135/156/21 134/157/21
f 4/153/32 2/136/32 130/158/32 137/159/32
f 32/153/33 31/55/33 145/55/33 148/153/33
f 4/153/8 3/55/8 31/55/8 32/153/8
f 2/136/8 4/153/8 32/153/8 30/136/8
f 1/56/8 2/136/8 30/136/8 29/56/8
f 31/55/34 29/56/34 142/56/34 145/55/34
f 141/160/32 144/161/32 147/162/32 146/163/32
f 30/136/35 32/153/35 148/153/35 143/136/35
f 41/17/8 42/164/8 43/43/8
f 44/1/8 45/165/8 46/41/8
f 47/44/36 48/13/36 49/10/36
f 50/9/37 51/22/37 52/45/37
f 53/21/38 54/6/38 55/33/38
f 56/5/39 57/14/39 58/34/39
f 59/27/9 60/166/9 61/35/9
f 62/19/9 63/167/9 64/39/9
f 65/71/40 66/76/40 67/40/40
f 68/72/41 69/68/41 70/88/41
f 71/89/42 72/85/42 73/79/42
f 74/80/43 75/59/43 76/75/43
f 77/94/44 78/73/44 79/70/44
f 80/69/45 81/87/45 82/51/45
f 83/86/46 84/78/46 85/107/46
f 86/77/47 87/74/47 88/93/47
f 89/102/48 90/126/48 91/120/48 92/123/48
f 93/117/49 94/168/49 95/49/49 96/48/49
f 97/145/50 98/169/50 99/47/50 100/46/50
f 101/133/51 102/170/51 103/103/51 104/97/51
f 105/129/52 106/171/52 107/141/52 108/95/52
f 109/100/53 110/122/53 111/127/53 112/116/53
f 113/113/54 114/144/54 115/124/54 116/101/54
f 117/125/55 118/143/55 119/135/55 120/118/55
f 121/148/56 122/128/56 123/121/56 124/119/56
f 125/151/57 126/172/57 127/52/57 128/31/57
f 129/25/58 130/173/58 131/139/58 132/29/58
f 133/3/59 134/174/59 135/156/59 136/67/59
f 137/159/60 138/175/60 139/59/60 140/82/60
f 49/10/61 50/9/61 52/45/61 47/44/61
f 51/22/62 53/21/62 55/33/62 52/45/62
f 54/6/63 56/5/63 58/34/63 55/33/63
f 57/14/64 48/13/64 47/44/64 58/34/64
f 33/23/65 51/22/65 50/9/65 34/12/65
f 48/13/66 38/16/66 37/11/66 49/10/66
f 35/7/67 54/6/67 53/21/67 36/24/67
f 39/15/68 57/14/68 56/5/68 40/8/68
f 41/17/69 60/20/69 59/27/69 42/26/69
f 137/159/70 130/158/70 129/25/70 138/28/70
f 125/151/71 134/150/71 133/3/71 126/2/71
f 62/19/72 45/18/72 44/1/72 63/4/72
f 67/40/73 69/39/73 68/72/73 65/71/73
f 69/68/74 72/67/74 71/89/74 70/88/74
f 72/85/75 75/84/75 74/80/75 73/79/75
f 75/59/76 67/63/76 66/76/76 76/75/76
f 79/70/77 80/69/77 82/51/77 77/50/77
f 81/87/78 83/86/78 85/107/78 82/106/78
f 84/78/79 86/77/79 88/93/79 85/99/79
f 87/74/80 78/73/80 77/94/80 88/93/80
f 70/88/81 81/87/81 80/69/81 68/72/81
f 78/73/82 66/76/82 65/71/82 79/70/82
f 73/79/83 84/78/83 83/86/83 71/89/83
f 76/75/84 87/74/84 86/77/84 74/80/84
f 112/116/85 113/149/85 116/101/85 109/100/85
f 114/144/86 118/143/86 117/125/86 115/124/86
f 119/135/87 121/134/87 124/119/87 120/118/87
f 122/128/88 111/127/88 110/122/88 123/121/88
f 97/145/89 114/144/89 113/113/89 98/112/89
f 111/127/90 94/90/90 93/117/90 112/116/90
f 101/133/91 119/132/91 118/143/91 102/146/91
f 105/129/92 122/128/92 121/148/92 106/147/92
f 89/102/93 116/101/93 115/124/93 90/126/93
f 120/118/94 91/120/94 90/126/94 117/125/94
f 123/121/95 92/123/95 91/120/95 124/119/95
f 109/100/96 89/102/96 92/123/96 110/122/96
f 142/56/97 143/152/97 144/161/97 141/160/97
f 146/163/98 147/162/98 148/153/98 145/55/98
f 147/162/99 144/161/99 143/136/99 148/153/99
f 141/160/100 146/163/100 145/55/100 142/56/100
f 37/11/9 38/176/9 39/177/9 40/178/9 35/179/9 36/180/9 33/181/9 34/182/9
